<svg xmlns:xlink="http://www.w3.org/1999/xlink" xmlns="http://www.w3.org/2000/svg" id="Icons" height="512" viewBox="0 0 60 60" width="512"><path d="m17 21.08v-18.08a2.006 2.006 0 0 1 2-2h22a2.006 2.006 0 0 1 2 2v18.08z" fill="#D3824B"></path><path d="m30 18a29 29 0 0 1 29 29v10a2 2 0 0 1 -2 2h-54a2 2 0 0 1 -2-2v-10a29 29 0 0 1 29-29z" fill="#ED9152"></path><path d="m7 59v-12a23 23 0 0 1 46 0v12z" fill="#D3824B"></path><path d="m40 44.54c0 6.2-4.61 9.46-8 9.46v1h-5v-1a8.133 8.133 0 0 1 -8-8.21c0-3.22 2.42-5.84 2.69-8.43a.241.241 0 0 1 .4-.17 6.092 6.092 0 0 1 1.65 3.13 13.835 13.835 0 0 0 3.49-11.03.246.246 0 0 1 .39-.24 17.322 17.322 0 0 1 6.28 10.59 5.147 5.147 0 0 0 2.01-3.59.245.245 0 0 1 .42-.14 13.407 13.407 0 0 1 3.67 8.63z" fill="#D1314B"></path><path d="m28 54s-3 0-3-2.707c0-2.017 1.464-3.095 1.665-5.421a.374.374 0 0 1 .576-.264 2.207 2.207 0 0 1 1.134 1.9 6.741 6.741 0 0 0 1.661-4.17.372.372 0 0 1 .61-.247c1.1.923 3.354 3.172 3.354 6.041 0 3.785-2.312 4.868-4 4.868z" fill="#EDB538"></path><path d="m48 59v-3a2 2 0 0 0 -2-2h-32a2 2 0 0 0 -2 2v3z" fill="#B56140"></path><path d="m44 20.479v-17.479a3 3 0 0 0 -3-3h-22a3 3 0 0 0 -3 3v17.469a29.929 29.929 0 0 0 -5.655 3.867 1 1 0 1 0 1.31 1.51 28.009 28.009 0 0 1 3.49-2.574l2.006 3.473a24.183 24.183 0 0 0 -7.406 7.406l-3.459-2a27.912 27.912 0 0 1 2.472-3.4 1 1 0 0 0 -1.516-1.3 30 30 0 0 0 -7.242 19.549v10a3 3 0 0 0 3 3h54a3 3 0 0 0 3-3v-10a30.023 30.023 0 0 0 -16-26.521zm9.721 11.671-3.466 2a24.183 24.183 0 0 0 -7.406-7.406l2-3.466a28.2 28.2 0 0 1 8.872 8.872zm.254 13.85a23.828 23.828 0 0 0 -2.716-10.119l3.467-2a27.815 27.815 0 0 1 3.249 12.119zm-11.975-34h-11v-4h11zm-18-6v-4h12v4zm5 2v4h-11v-4zm7 6v3.6a29.885 29.885 0 0 0 -12 .009v-3.609zm-5 5.025a27.815 27.815 0 0 1 12.121 3.249l-2 3.467a23.842 23.842 0 0 0 -10.121-2.716zm7-.933v-4.092h4v5.512a29.882 29.882 0 0 0 -4-1.42zm4-15.092v3h-4v-4h3a1 1 0 0 1 1 1zm-23-1h3v4h-4v-3a1 1 0 0 1 1-1zm-1 12h4v4.087a30.087 30.087 0 0 0 -4 1.422zm-1.125 8.267a28.012 28.012 0 0 1 12.125-3.245v4a23.842 23.842 0 0 0 -10.119 2.716zm-8.134 13.614a23.828 23.828 0 0 0 -2.716 10.119h-3.98a27.964 27.964 0 0 1 3.245-12.112zm-6.741 21.119v-9h4v10h-3a1 1 0 0 1 -1-1zm20.281-17.842a7.364 7.364 0 0 1 .49 1.406 1 1 0 0 0 1.681.464 14.946 14.946 0 0 0 3.921-9.972 16.6 16.6 0 0 1 4.546 8.761 1 1 0 0 0 1.542.654 6.148 6.148 0 0 0 2.077-2.744 11.9 11.9 0 0 1 2.462 6.814 8.371 8.371 0 0 1 -4.775 7.959 6.922 6.922 0 0 0 .775-3.372c0-3.2-2.324-5.639-3.711-6.808a1.374 1.374 0 0 0 -2.251.937 6.847 6.847 0 0 1 -.5 2.129 3.7 3.7 0 0 0 -.771-.628 1.378 1.378 0 0 0 -1.356-.062 1.339 1.339 0 0 0 -.743 1.09 6.671 6.671 0 0 1 -.8 2.445 6.69 6.69 0 0 0 -.868 3.062 3.936 3.936 0 0 0 .14 1.032 6.976 6.976 0 0 1 -4.14-6.525 10.958 10.958 0 0 1 1.374-4.52c.336-.723.661-1.42.907-2.122zm3.719 12.135a4.9 4.9 0 0 1 .674-2.193 11.8 11.8 0 0 0 .7-1.677v.081a1 1 0 0 0 1.693.721 7.331 7.331 0 0 0 1.785-3.576 6.837 6.837 0 0 1 2.148 4.479c0 3.593-2.3 3.872-3 3.872h-2c-.2 0-2-.048-2-1.707zm20 3.707a1 1 0 0 1 1 1v2h-34v-2a1 1 0 0 1 1-1zm3 3v-2a3 3 0 0 0 -3-3h-8.839a10.584 10.584 0 0 0 3.839-8.459 14.492 14.492 0 0 0 -3.957-9.333 1.243 1.243 0 0 0 -2.127.749 4.1 4.1 0 0 1 -.48 1.569 18.088 18.088 0 0 0 -6.207-9.267 1.233 1.233 0 0 0 -1.385-.086 1.248 1.248 0 0 0 -.6 1.268 12.555 12.555 0 0 1 -2.164 8.839 5.812 5.812 0 0 0 -1.316-1.832 1.234 1.234 0 0 0 -1.272-.24 1.258 1.258 0 0 0 -.8 1.05 10.756 10.756 0 0 1 -1.128 3.17 12.662 12.662 0 0 0 -1.564 5.372 8.8 8.8 0 0 0 3.462 7.2h-7.462a3 3 0 0 0 -3 3v2h-3v-11a22 22 0 0 1 44 0v11zm8 0h-3v-10h4v9a1 1 0 0 1 -1 1z" fill="#262626"></path></svg>