<svg xmlns="http://www.w3.org/2000/svg" xmlns:xlink="http://www.w3.org/1999/xlink" id="Capa_1" x="0px" y="0px" viewBox="0 0 512 512" style="enable-background:new 0 0 512 512;" xml:space="preserve" width="512"  height="512" ><g>	<polygon style="" points="26.14,23.134 12.561,75.306 28.284,97.462 82.601,168.931 111.188,200.378 254.841,207.524   390.633,205.38 429.941,190.372 459.243,127.479 482.828,83.883 492.835,68.874 485.688,28.851 399.924,21.704 285.573,21.704   195.522,20.275 101.183,17.416 26.14,20.275  " fill="#FFD45C"></polygon>	<polygon style="" points="106.185,205.38 4.699,424.791 21.852,486.969 302.727,489.113 485.688,483.395   507.128,421.932 414.218,205.38 208.386,206.81  " fill="#FFD45C"></polygon></g><g>	<path style="" d="M475.813,61.84c-24.089,8.802-51.949,1.192-76.932,0.475c-16.145-0.463-32.348-0.764-48.493-0.153  c-14.502,0.549-31.406-0.638-45.272,3.845c-4.002,1.294-4.469,7.518,0,8.593c16.264,3.911,30.521,5.195,47.296,5.333  c17.54,0.145,35.054,0.684,52.565,1.726c13.533,0.805,27.891,3.535,42.039,4.319c-4.123,2.119-7.723,4.918-10.33,10.071  c-1.874,3.703-2.622,7.76-3.815,11.685c-5.969,8.311-10.816,17.297-16,26.226c-3.014,3.043-5.999,6.052-8.84,9.058  c-7.983,8.45-17.477,17.944-22.678,28.94c-12.549,0.029-25.097,0.249-37.642,0.626c-0.974-4.049-4.123-7.482-9.53-7.472  c-36.997-0.787-74.027,1.936-111.031,2.125c-17.609,0.089-35.219,0.195-52.827-0.064c-12.105-0.178-24.349-1.673-36.47-1.35  c-0.266-0.622-0.596-1.254-1.009-1.896c-10.95-16.995-25.144-31.492-39.349-45.761c-6.999-7.03-14.645-13.664-20.808-21.458  c-4.804-6.076-8.331-11.589-16.043-14.084c-3.604-1.166-6.674-0.239-8.89,1.768c-0.73-0.299-1.493-0.57-2.302-0.805  c-3.003-0.874-6.311-0.079-8.822,1.753c-1.977-1.253-3.94-2.54-5.873-3.897c-7.321-5.138-13.934,6.315-9.325,11.363  c5.016,9.597,15.289,14.87,24.018,21.015c0.27,0.189,0.541,0.358,0.814,0.511c0.245,0.884,0.618,1.787,1.165,2.703  c8.091,13.542,17.245,26.193,26.628,38.855c4.438,5.988,9.326,11.288,14.309,16.489c3.783,5.568,7.488,11.12,12.302,15.936  c0.084,5.286,4.041,11.037,10.181,11.524c34.299,2.719,68.641,2.229,103.011,2.772c11.841,0.187,23.691,0.176,35.534,0.286  c0.829,1.244,1.941,2.345,3.376,3.177c12.612,7.317,27.05,6.645,41.124,5.888c18.037-0.97,35.987-2.745,53.788-5.868  c7.201-1.264,14.688-2.47,21.986-4.137c10.098,0.762,20.194,1.382,30.275,1.533c1.045,0.016,2.014-0.129,2.919-0.382  c6.845,2.898,16.303-0.367,15.813-9.876c-0.206-3.983,4.72-10.738,6.972-14.739c3.899-6.927,7.9-13.726,11.492-20.822  c5.769-11.398,11.377-22.884,17.27-34.219c2.672-5.138,5.397-9.886,7.452-14.927c3.263-5.608,6.174-11.386,8.339-17.52  c0.934-2.646,0.578-5.035-0.561-6.963c3.421-0.847,6.789-1.961,10.08-3.45C494.216,75.84,486.738,57.847,475.813,61.84z" fill="#FFBE4A"></path>	<path style="" d="M262.712,99.008c-8.833,2.298-20.239,2.447-29.101,0.274c-10.447-2.561-13.994-8.597-16.689-16.646  c4.209-7.24,1.904-15.556-7.626-20.665c-13.192-7.071-30.5-6.885-45.06-7.019c-15.509-0.143-31.176,0.376-46.67,0.853  c-16.318,0.502-32.625,1.455-48.954,1.54c-5.433,0.028-10.725,0.298-16.145,0.694c-2.798,0.204-7.012,0.923-10.877,1.016  c0.529-4.828,1.025-9.658,2.035-14.43c1.806-8.531,3.161-15.666-1.17-23.573c-5.074-9.262-17.286-4.006-18.245,4.942  c-1.36,12.695-2.655,25.921-4.686,38.569c-0.988,6.157,1.564,10.797,7.433,13.091c8.808,3.442,19.172,1.653,28.292,0.706  c11.887-1.234,23.876-1.03,35.812-1.551c18.802-0.821,37.603-1.33,56.405-2.046c12.616-0.481,25.387-0.764,37.96,0.586  c5.11,0.548,10.906,1.161,15.673,3.203c4.087,1.749,4.765,2.174,3.987,5.656c-0.327,1.463,0.296,3.076,1.363,4.161  c0.293,4.642,0.972,9.181,3.543,13.401c3.541,5.814,9.431,9.572,15.566,12.151c14.101,5.93,29.458,6.27,43.343-0.231  C277.322,109.746,271.289,96.777,262.712,99.008z" fill="#FFBE4A"></path>	<path style="" d="M106.9,201.092c-7.241,19.534-19.148,38.03-27.889,56.977c-9.328,20.219-18.641,40.436-28.215,60.72  c-10.888,23.071-22.065,46.058-32.285,69.478c-3.276,7.507-15.985,29.622-9.484,35.788c8.063,7.649,28.784,5.254,38.897,5.799  c20.307,1.095,39.85,4.196,59.654,8.373c20.947,4.418,46.151,5.278,67.54,5.14c5.486-0.036,16.824-1.378,21.427,1.134  c3.925,2.142,7.618,8.538,11.095,11.729c16.179,14.849,47.249,16.932,67.959,13.464c16.936-2.836,32.028-8.491,42.93-22.089  c5.205-6.492,5.617-10.596,14.327-10.699c13.295-0.158,26.857,1.528,40.281,1.48c29.561-0.105,60.308-1.567,89.559-5.519  c9.596-1.297,32.807-0.023,38.355-9.955c3.934-7.041,0.753-23.646-1.108-31.079c-2.944-11.761-8.845-23.735-13.898-34.741  c-12.95-28.207-23.929-57.324-37.194-85.277c-6.33-13.338-13.569-25.431-20.694-38.205c-3.921-7.031-6.538-15.072-11.599-21.418  c-6.098-7.646-13.477-7.288-23.559-8.221c-65.894-6.094-131.446,3.967-197.525,1.408  C167.283,204.289,134.477,209.513,106.9,201.092z" fill="#FFBE4A"></path></g><g>	<path style="" d="M61.16,81.024c1.48,5.888,6.127,9.56,9.132,14.453c3.514,5.723,5.799,11.941,9.629,17.586  c7.717,11.373,16.139,22.571,24.316,33.57c5.194,6.988,12.434,17.742,20.514,21.441c11.958,5.474,31.281,0.83,44.058,0.857  c19.925,0.042,39.986-0.079,59.75,0.712c12.536,0.502,25.517-0.413,38.028-0.682c34.415-0.739,68.054-1.429,102.566-1.46  c15.025-0.014,24,3.519,35.136-9.181c7.834-8.934,12.472-20.45,18.984-30.014c7.314-10.741,11.815-21.879,17.931-33.032  c5.469-9.973,6.405-11.372-6.32-11.95c-17.31-0.786-34.159-3.066-51.377-4.624c-26.213-2.371-52.87-4.249-79.194-3.337  c-7.762,14.548-8.696,36.746-29.058,39.823c-21.618,3.267-52.387,0.637-65.316-18.998c-3.339-5.071-4.556-17.513-9.423-20.233  c-1.478-0.826-10.217,0.789-11.867,0.782c-10.916-0.048-21.769,0.685-32.68,0.729c-20.549,0.083-41.047,0.869-61.599,0.696  c-7.621-0.064-15.292-1.69-22.851-1.634C67.416,76.558,62.631,78.323,61.16,81.024z" fill="#F79339"></path>	<path style="" d="M114.762,234.683c-18.083,29.012-29.332,61.743-42.655,93.071  c-8.608,20.241-17.463,40.296-25.914,60.566c-2.493,5.979-14.379,31.529-10.261,37.379c3.945,5.605,14.192,4.924,20.111,5.919  c8,1.344,15.62-0.482,23.693,0.32c20.747,2.062,41.333,2.302,61.666,5.893c7.778,1.374,15.587,1.198,23.352,1.214  c8.218,0.017,16.034-1.606,24.03,1.148c8.446,2.909,10.018,9.015,15.991,14.791c3.714,3.591,9.192,5.996,13.618,8.559  c14.098,8.165,29.8,8.988,45.934,8.258c9.02-0.408,27.067-1.643,34.29-6.935c4.4-3.223,7.116-10.893,10.507-15.239  c12.062-15.46,31.055-13.676,48.697-14.473c21.948-0.992,43.943-3.013,65.906-4.806c12.66-1.033,25.271-2.112,37.889-3.412  c4.267-0.439,10.494,0.319,13.423-2.864c-5.247-10.869-8.085-24.12-11.419-36.064c-5.11-18.31-10.927-35.472-18.226-53.05  c-5.358-12.905-10.427-25.832-15.974-38.71c-6.846-15.896-16.456-30.556-21.685-47.059c-2.048-6.464-1.754-14.864-8.509-16.652  c-7.01-1.854-19.789,0.746-27.084,1.409c-30.874,2.806-62.215,2.936-93.194,4.147c-20.961,0.82-41.851-0.693-62.627-3.409  C182.752,230.297,148.764,232.005,114.762,234.683z" fill="#F79339"></path></g><path style="" d="M218.734,226.554c-9.933,2.508-19.151,7.621-29.128,9.712c-9.835,2.061-19.914,3.239-28.999,7.836 c-12.714,6.433-25.613,13.817-36.072,23.584c-0.379,0.354-0.757,0.711-1.133,1.068c-8.755,8.339-16.587,17.884-20.896,29.311 c-4.049,10.736-4.381,22.784-6.567,33.923c-4.831,24.609,19.513,48.506,36.561,62.223c9.909,7.973,20.6,13.114,33.059,15.569 c6.291,1.24,13.075,2.562,19.171,4.567c6.772,2.228,12.948,6.069,19.851,7.996c12.281,3.429,26.73,3.371,39.434,3.346 c13.104-0.025,25.905-0.392,39.002-1.245c24.849-1.617,50.584-8.214,72.043-21.021c18.989-11.332,32.498-24.873,42.105-44.833 c6.622-13.757,10.966-32.002,9.353-47.34c-1.556-14.802-9.809-32.262-18.683-43.979c-5.614-7.412-12.971-12.299-20.227-17.891 c-6.787-5.231-12.676-10.851-20.402-14.776c-20.087-10.205-43.601-11.908-65.754-13.462c-9.353-0.656-18.822-0.421-28.178,0.278 C241.77,222.28,229.895,223.736,218.734,226.554z" fill="#FF7A49"></path><path style="" d="M204.181,245.694c-10.102,2.884-19.962,6.328-29.653,11.057c-8.574,4.184-17.221,9.401-24.789,15.185 c-15.272,11.672-26.208,26.999-27.768,46.351c-1.774,22.005,6.065,36.402,18.106,53.718c11.764,16.918,34.715,23.177,53.482,28.844 c19.596,5.917,41.36,9.256,61.791,6.685c31.45-3.957,64.897,0.279,92.493-18.316c37.953-25.574,45.268-84.487,14.088-117.864 c-13.044-13.963-30.078-21.939-48.031-27.023c-9.569-2.71-19.745-5.763-29.711-6.458c-6.574-0.458-12.418,1.833-18.87,2.304 c-9.985,0.728-19.894-1.346-29.995-0.426C224.764,240.714,214.371,242.785,204.181,245.694z" fill="#FFD45C"></path><g>	<path style="" d="M183.781,299.956c-0.467-0.677-0.988-1.312-1.592-1.854c-3.139-2.823-7.578-2.873-11.479-1.973  c-5.47,1.262-11.46,5.195-14.121,10.445c-1.567,1.09-2.602,2.863-2.417,5.258c0.049,0.632,0.147,1.219,0.268,1.784  c-0.009,0.001-0.018,0.002-0.028,0.004c0.026,0.089,0.065,0.167,0.092,0.254c0.751,3.157,2.607,5.259,5.075,6.476  c4.652,2.913,11.273,3.243,16.424,1.824c4.383-1.206,8.169-4.693,10.328-8.626C188.881,308.902,188.031,302.484,183.781,299.956z" fill="#AD514A"></path>	<path style="" d="M308.229,261.335c-0.761-3.886-4.282-5.212-7.514-4.556c-1.115-0.987-2.548-1.767-4.358-2.241  c-6.626-1.737-12.72,2.235-16.89,7.006c-1.759,2.013-3.322,4.563-4.11,7.173c-0.539,0.88-0.951,1.827-1.125,2.863  c-0.283,1.683,0.001,3.238,0.657,4.614c1.272,6.021,7.769,10.135,15.37,8.258C300.472,281.93,310.395,272.388,308.229,261.335z" fill="#AD514A"></path>	<path style="" d="M309.01,364.092c-2.362-5.209-7.328-6.652-12.762-5.938c-7.278-1.163-14.013,4.084-18.459,9.771  c-0.941,1.053-1.709,2.119-2.233,3.163c-1.492,2.972-0.699,5.724,1.056,7.518c0.207,1.639,0.865,3.221,2.11,4.646  c4.511,5.164,12.07,4.184,18.063,0.39c2.9-0.989,5.563-3.169,7.631-5.205C308.13,374.78,311.391,369.342,309.01,364.092z" fill="#AD514A"></path></g><g>	<path style="" d="M275.603,343.163c-1.947-0.41-4.253-0.113-6,0.943c-0.187,0.113-0.353,0.272-0.534,0.4  c-4.101,0.426-8.036,2.871-12.513,2.63c-5.825-0.313-12.947-2.533-18.214-5.057c-5.532-2.651-10.745,3.774-6.564,8.507  c7.608,8.613,34.89,13.267,42.841,2.354c1.142-0.333,2.207-0.866,3.114-1.711C280.297,348.842,279.13,343.906,275.603,343.163z" fill="#7CC366"></path>	<path style="" d="M224.167,263.048c-2.19-0.26-4.135,1.389-5.279,3.028c-4.193,6.006,0.779,14.612-0.029,21.48  c-0.824,6.997-3.675,14.821-10.447,17.698c-2.172,0.177-4.307,1.429-5.312,4.008c-0.085,0.217-0.169,0.433-0.253,0.65  c-1.775,4.555,3.327,8.113,7.302,7.301c6.739-1.376,11.419-5.909,14.682-11.501c4.711-5.147,7.059-13.527,8.126-19.65  C234.461,277.431,235.677,264.416,224.167,263.048z" fill="#7CC366"></path></g><g>	<path style="" d="M216.792,370.935c0.677-0.52,1.363-1.056,1.528-1.184c2.576-2.006,4.789-4.866,4.713-8.314  c-0.172-7.804-9.309-10.212-15.608-9.48c-5.611,0.653-13.265,3.553-16.422,8.663c-0.174,0.28-0.303,0.558-0.442,0.836  c-0.553,0.505-1.095,1.027-1.627,1.557c-3.682,3.673-6.465,9.989-0.77,13.479c2.668,1.635,5.647,1.194,8.572,0.966  c3.471-0.271,6.115,1.479,9.505,2.15c0.18,0.036,1.284,0.426,1.643,0.444c0.027,0.038,0.05,0.066,0.078,0.109  c0.594,0.902,0.769,2.007,1.453,2.887c1.533,1.971,4.011,2.842,6.442,2.07c6.785-2.155,5.676-9.653,1.489-13.602  C217.217,371.393,217.01,371.163,216.792,370.935z" fill="#FFFFFF"></path>	<path style="" d="M348.492,321.986c8.066-3.925,7.348-14.047-1.233-16.695c-6.657-2.055-15.256-1.337-21.981,1.421  c-2.596,0.724-5.021,1.866-6.956,3.567c-1.625,0.901-3.061,2.108-4.168,3.656c-2.449,3.426-0.357,7.723,2.96,9.443  c0.204,0.175,0.407,0.351,0.625,0.51c1.771,1.289,3.904,1.888,6.109,1.96c1.394,0.364,3.254,0.497,4.427,1.354  c1.502,1.099,1.744,2.892,2.484,4.531c2.607,5.771,10.999,10.242,16.361,4.719c2.447-2.52,2.708-6.684,0.943-9.664  c-0.593-1.001-2.612-2.215-2.614-3.447c0-0.199-0.08-0.161-0.164-0.068c0.019-0.033,0.029-0.047,0.052-0.087  C345.629,322.678,347.939,322.254,348.492,321.986z" fill="#FFFFFF"></path></g><path style="" d="M380.383,321.497c-0.598-4.886-8.291-7.114-9.459-1.28c-2.676,13.358-7.371,25.82-14.337,36.571 c-31.301-8.054-55.918-33.55-86.959-42.451c11.529-4.836,23.044-9.709,34.587-14.501c16.86-6.999,33.869-13.871,49.183-23.939 c5.914-3.888,0.427-13.429-5.579-9.546c-16.073,10.39-34.108,17.273-51.293,25.566c-11.778,5.683-23.659,10.956-35.613,16.122 c0.066-5.202,0.28-10.406,0.327-15.607c0.157-17.188,0.808-34.565-1.896-51.597c-0.064-0.404-0.735-0.395-0.807,0 c-3.396,18.583-5.472,36.774-6.436,55.64c-0.272,5.321-0.629,10.427-0.52,15.58c-2.962,1.265-5.922,2.531-8.894,3.795 c-19.535,8.308-39.312,15.94-59.153,23.477c-12.734,4.837-28.492,9.49-40.452,17.36c-1.433-1.764-2.807-3.581-4.072-5.492 c-16.189-24.461-1.292-56.13,16.73-76.207c1.976-1.08,3.955-2.054,5.461-2.938c1.847-1.085,3.801-2.029,5.758-2.975 c3.634,4.731,11.795,6.789,16.662,9.422c7.297,3.948,16.62,12.009,25.174,11.406c2.999-0.211,4.285-3.461,2.369-5.719 c-5.225-6.16-14.572-9.437-21.69-12.994c-3.003-1.5-6.04-3.067-9.266-4.029c-2.225-0.663-4.703-0.848-7.044-1.34 c1.658-0.997,3.238-2.102,4.645-3.447c2.204-2.106,0.418-5.566-2.369-5.719c-8.351-0.458-15.573,5.802-21.802,10.609 c-3.98,3.071-9.204,6.279-9.486,11.801c-0.025,0.491,0.105,0.883,0.294,1.224c-7.03,6.53-12.729,14.092-16.794,23.848 c-5.6,13.439-7.1,28.816-2.058,42.681c2.245,6.173,5.802,11.68,10.068,16.671c0.123,0.546,0.543,1.024,1.094,1.254 c5.725,6.404,12.587,11.94,19.306,16.893c15.636,11.531,34.238,16.994,53.187,20.374c19.783,3.529,40.561,4.867,60.635,5.433 c18.921,0.534,38.995-2.913,56.504-10.178C354.115,385.76,384.359,353.969,380.383,321.497z M318.009,387.984 c-16.623,6.296-34.439,8.449-52.351,8.526c-0.175-5.065-1.393-10.321-1.944-15.132c-0.699-6.108-0.308-12.727-1.595-18.679 c-0.881-4.075-7.917-3.258-7.403,1.002c1.227,10.176-2.559,22.037-1.168,32.569c-10.365-0.44-20.68-1.416-30.731-2.548 c-25.984-2.925-55.447-12.175-74.664-31.448c15.295-4.618,30.278-12.345,45.019-17.773c19.072-7.023,38.061-14.326,56.875-22.016 c0.765-0.313,1.526-0.633,2.29-0.947c0.622,6.699-0.479,13.97,2.849,19.908c1.861,3.32,6.306,1.498,6.633-1.797 c0.68-6.845-0.258-14.005-0.706-20.877c-0.019-0.283-0.014-0.566-0.03-0.849c0.588-0.245,1.173-0.494,1.761-0.739 c15.428,8.679,30.988,17.004,45.973,26.466c12.631,7.976,26.989,16.245,41.257,21.893 C341.805,375.235,331.201,382.987,318.009,387.984z" fill="#FFBE4A"></path><g>	<path style="" d="M377.064,376.559c-21.332,18.644-44.503,31.677-72.53,36.605c-28.89,5.08-59.239,5.51-88.119,0.147  c-42.354-7.865-105.464-29.31-110.892-76.914c2.477-6.048,3.131-12.494,4.932-18.784c2.16-7.543,5.098-14.785,8.127-22.01  c3.448-8.225,6.789-14.837,13.226-21.016c4.065-3.902,7.915-7.048,10.246-12.308c1.017-2.295-1.136-5.016-3.61-3.61  c-11.995,6.818-21.052,16.568-26.243,29.323c-4.768,11.714-12.437,27.37-11.45,41.114c-2.365,20.383,7.093,41.901,22.598,55.139  c22.729,19.407,56.385,30.485,85.108,37.091c31.229,7.183,63.666,7.555,95.247,2.559c31.646-5.007,58.632-17.61,77.306-44.292  C382.731,377.145,379.096,374.783,377.064,376.559z" fill="#E8643F"></path>	<path style="" d="M385.827,299.094c-4.748-15.337-12.658-29.779-24.687-40.561  c-15.688-14.061-33.275-20.852-53.799-24.372c-10.664-1.829-21.315-4.088-32.178-3.745c-12.419,0.391-24.959,2.302-37.295,3.74  c-2.706,0.315-2.783,4.037,0,4.271c9.794,0.826,19.624-0.197,29.436-0.194c10.393,0.004,20.331,1.794,30.503,3.685  c17.323,3.219,34.049,7.539,48.469,18.141c22.302,16.398,39.586,47.735,34.165,76.022c-0.292,1.523,1.588,2.964,2.8,1.63  C392.732,327.258,389.632,311.381,385.827,299.094z" fill="#E8643F"></path></g><path d="M501.133,381.598c-8.478-19.811-17.487-39.425-26.293-59.092c-9.596-21.432-19.3-42.815-29.077-64.165 c-4.786-10.45-10.255-20.559-15.068-30.99c-3.392-7.352-5.853-15.213-9.566-22.42c1.66-1.083,3.258-2.309,4.759-3.751 c14.877-14.282,24.639-36.918,33.526-55.11c9.878-20.223,16.507-44.387,30.132-62.492c0.183-0.244,0.319-0.487,0.428-0.728 c0.564-0.449,1.113-0.928,1.629-1.479c9.128-9.752,5.449-25.251,5.077-37.16c-0.435-13.931-2.05-21.789-17.657-22.592 c-21.655-1.115-43.3-2.893-64.98-3.925c-48.163-2.292-96.336-1.367-144.525-2.051c-54.426-0.772-108.541-2.277-162.978-1.033 c-13.084,0.299-26.17,0.501-39.257,0.613C55.941,15.321,43.2,13.63,31.998,15.576c-7.225,1.256-11.631,6.269-13.908,13.107 c-1.604,4.816-2.606,9.966-3.477,15.169c-0.365,0.991-0.742,1.978-1.096,2.973c-3.025,8.508-6.811,18.586-5.671,28.161 c1.329,11.159,9.69,19.379,16.885,27.337c12.973,14.349,22.396,30.219,33.304,46.119c11.845,17.268,26.411,34.659,41.015,49.652 c1.23,1.263,2.48,2.466,3.752,3.618c-8.944,11.539-13.924,25.612-20.841,38.385c-9.463,17.473-19.443,34.666-28.454,52.383 C35.749,327.396,23.1,364.745,6.819,400.349c-7.045,15.406-8.815,28.611-4.45,45.094c3.132,11.826,5.67,27.924,13.835,37.533 c8.495,9.997,23.207,10.683,35.335,11.974c20.217,2.152,40.559,1.906,60.858,2.061c42.337,0.323,84.48,1.255,126.836,0.661 c43.164-0.606,86.331-0.999,129.49-1.921c21.905-0.467,43.808-1.071,65.702-1.908c10.577-0.405,21.153-0.862,31.725-1.387 c6.315-0.314,12.806-0.098,18.542-3.129c9.785-5.171,14.742-15.949,18.141-25.957c3.638-10.711,6.986-22.69,8.642-33.886 C513.904,413.074,507.472,396.409,501.133,381.598z M460.232,119.345c-8.766,19.074-18.782,37.493-29.76,55.38 c-3.81,6.208-7.408,13.219-12.821,18.216c-1.817,1.677-3.756,2.928-5.788,3.873c-4.343-9.014-1.328-22.171-9.453-29.271 c-0.192-0.167-0.41-0.298-0.611-0.453c12.585-11.147,21.19-27.162,28.892-41.71c6.137-11.592,18.661-24.847,20.25-38.598 c7.66,0.325,15.349,0.473,23.005,0.292c0.879-0.021,1.763-0.055,2.646-0.104C469.373,96.59,465.228,108.474,460.232,119.345z  M113.127,272.737c-16.063,19.669-25.876,47.347-21.876,72.671c3.799,24.056,20.797,42.678,40.86,55.595 c21.85,14.067,47.77,22.219,73.184,27.229c37.702,7.432,78.212,8.174,115.648-1.224c29.999-7.532,55.5-24.244,73.241-49.403 c20.085-28.484,28.998-66.736,11.595-98.587c-10.333-18.912-26.05-33.605-44.502-43.703c9.875,0.49,19.775,0.982,29.665,0.841 c3.134-0.044,5.833-0.685,8.173-1.785c5.903,14.182,10.572,28.717,16.14,43.042c7.02,18.061,14.939,35.753,21.918,53.84 c7.024,18.202,13.892,36.464,20.427,54.848c2.344,6.594,4.522,13.184,7.44,19.547c2.714,5.918,6.346,12.175,7.316,18.781 c-9.581,1.502-19.154,3.396-28.619,4.198c-21.814,1.849-43.683,2.964-65.555,3.854c-15.256,0.621-30.641-1.055-45.819-0.101 c-12.313,0.774-19.062,3.988-24.448,14.989c-7.098,14.498-26.511,17.523-41.248,18.715c-13.821,1.117-28.242,0.322-41.339-4.543 c-6.216-2.309-12.264-5.693-16.878-10.523c-4.133-4.327-6.264-10.602-11.581-13.765c-4.487-2.669-9.977-2.355-14.987-2.542 c-11.098-0.414-22.187-0.743-33.292-0.93c-24.441-0.413-48.58-1.823-72.856-4.746c-12.31-1.483-24.613-3.048-36.953-4.268 c-0.155-0.015-0.314-0.033-0.47-0.049c11.309-42.609,29.938-81.98,48.711-121.733c8.949-18.951,17.241-38.453,25.505-57.675 c1.402-3.261,2.074-6.415,2.269-9.511c12.821,1.978,26.692,2.4,39.462,2.376c3.333-0.006,6.656-0.144,9.977-0.301 C144.586,245.038,126.797,255.999,113.127,272.737z M250.688,228.931c12.445-0.386,24.978-0.186,37.322,0.355 c32.675,1.43,63.54,9.468,87.761,32.166c11.776,11.036,22.252,24.493,25.813,40.44c3.99,17.867,0.493,36.473-7.4,52.838 c-13.048,27.053-35.79,48.025-64.508,57.891c-54.211,18.625-122.467,12.497-174.362-11.347c-20.089-9.23-40.401-22.25-49.847-42.888 c-10.529-23.004-3.727-51.136,9.438-71.717C142.587,243.393,201.878,232.957,250.688,228.931z M381.466,229.087 c-7.922,0.023-15.908-0.366-23.817,0.04c-2.648,0.136-5.266,0.395-7.878,0.648c-11.066-4.678-22.835-7.863-34.84-9.442 c-21.549-2.834-43.793-2.44-65.435-0.848c-17.921,1.318-35.369,5.609-52.771,9.906c-3.895,0.677-7.764,1.455-11.598,2.337 c-3.413-0.424-6.817-0.98-10.332-1.081c-7.457-0.214-14.95,0.573-22.417,0.533c-12.124-0.065-25.542-2.902-37.679-0.71 c-0.796-8.014-4.13-15.791-5.976-24.144c3.317,2.13,6.951,3.7,11.163,4.38c9.965,1.607,20.468-0.173,30.505-0.176 c50.169-0.017,100.054,4.419,150.244,2.6c25.008-0.906,49.918-1.301,74.94-1.363c9.981-0.024,21.017,0.678,31.132-1.297 c-1.583,3.146-2.321,6.622-4.07,10.17C397.724,230.609,390.837,229.061,381.466,229.087z M120.996,182.271 c0.613-3.154,1.087-5.645,1.154-6.024c1.77-10.078,16.772-4.234,23.624-4.151c6.993,0.084,13.987-0.005,20.978-0.127 c31.712-0.557,63.251,0.802,94.942,0.806c30.685,0.004,61.395,0.603,92.071,0.431c7.374-0.042,14.748-0.193,22.118-0.453 c5.314-0.187,14.787-2.495,19.682,0.301c6.6,3.77,5.355,17.81,8.101,26.086c-3.631,0.537-7.418,0.629-11.247,0.742 c-23.054,0.678-46.111-0.095-69.168,0.719c-44.491,1.572-88.291,0.548-132.755-0.964c-21.267-0.723-42.623,0.621-63.813-0.093 c-3.122-0.105-6.078-0.829-8.89-2.022C117.973,197.598,119.765,188.601,120.996,182.271z M104.152,138 c-6.456-9.525-12.94-18.995-19.308-28.585c-4.91-7.395-10.162-14.646-15.568-21.692c-0.643-0.837-1.308-1.712-1.991-2.585 c36.318-0.332,72.705,0.541,108.939-1.281c5.122-0.257,20.041-4.767,24.146-1.478c2.568,2.058,1.701,6.285,2.318,9.196 c0.904,4.262,2.756,8.618,5.127,12.274c8.28,12.768,23.66,16.849,38.03,17.574c14.918,0.753,32.337-1.711,45.053-10.086 c5.845-3.85,10.136-9.435,12.987-15.775c1.491-3.316,2.109-6.382,2.924-9.844c1.135-4.822-0.869-4.412,5.573-3.857 c21.288,1.834,42.239,3.598,63.661,3.601c22.265,0.003,44.454-0.095,66.692,0.946c-2.089,4.881-4.009,9.788-6.736,14.455 c-4.012,6.867-8.571,13.396-12.296,20.432c-7.994,15.1-18.877,28.442-27.092,43.245c-8.801-2.539-21.138,0.26-28.736,0.466 c-36.037,0.978-72.251,0.064-108.311,0.137c-18.343,0.037-36.645-1.201-54.98-1.169c-18.215,0.032-36.408,1.128-54.622,1.276 c-8.374,0.069-17.161-1.182-25.482-0.679c-0.206,0.013-0.409,0.027-0.613,0.041c-0.167-0.216-0.361-0.424-0.6-0.615 C114.637,157.11,110.217,146.948,104.152,138z M19.674,57.47c0.227-1.071,0.46-2.144,0.695-3.217 c1.358-3.183,2.468-6.435,3.25-10.275c0.995-4.886,2.046-13.591,6.816-16.335c3.363-1.934,8.491-1.033,12.144-0.997 c20.624,0.203,41.28-0.192,61.899-0.634c41.794-0.895,83.409-1.306,125.213-0.455c41.259,0.839,82.509,0.367,123.77,0.75 c20.899,0.194,41.798,0.64,62.677,1.613c19.228,0.896,38.417,3.398,57.622,4.059c8.841,0.304,11.427,0.123,11.111,9.303 c-0.204,5.932,0.207,11.836,0.099,17.769c-0.127,6.949,0.34,14.309-7.814,15.639c-7.425,1.211-15.893,0.705-23.385,0.641 c-20.339-0.173-40.62-1.363-60.98-1.258c-21.071,0.108-42.054,0.131-63.073-1.565c-8.492-0.685-25.022-6.169-31.389,1.897 c-3.158,4-2.137,9.406-3.67,14.018c-3.141,9.451-10.682,14.783-19.749,17.809c-13.82,4.611-31.548,5.823-45.335,0.403 c-8.05-3.165-13.738-9.648-15.417-18.221c-1.034-5.278,0.124-10.363-4.347-14.304c-5.088-4.485-13.265-3.838-19.466-3.24 c-9.381,0.906-18.505,1.76-27.951,2.065c-22.361,0.722-44.764,0.528-67.136,0.711c-20.681,0.169-41.414,0.502-62.091,0.312 c-3.218-0.03-9.517,0.78-12.173-1.035C16.012,69.519,18.692,62.095,19.674,57.47z M82.08,159.997 c-14.408-16.662-24.196-36.211-38.05-53.197c-4.385-5.377-9.438-10.178-14.233-15.184c-1.684-1.758-3.975-3.92-6.252-6.296 c5.358,0.706,10.981,0.526,15.229,0.38c6.826-0.234,13.657-0.372,20.49-0.473c3.007,4.103,5.632,8.628,8.468,12.67 c6.441,9.18,12.483,18.562,18.535,28.002c5.53,8.626,11.62,16.794,16.874,25.604c3.747,6.283,7.664,12.486,13.308,17.119 c-3.783,6.082-3.897,18.141-3.567,26.272C100.358,186.811,90.807,170.089,82.08,159.997z M14.924,413.31 c5.892-17.194,14.973-33.615,21.636-50.595c7.772-19.807,15.229-39.756,24.571-58.895c8.723-17.87,18.679-35.093,27.896-52.705 c4.009-7.661,7.903-15.255,10.823-23.399c1.69-4.714,3.231-9.447,5.106-14.034c0.66,3.366,1.564,6.71,2.179,10.073 c2.16,11.803-1.695,19.354-6.415,29.899c-8.672,19.375-15.916,39.206-25.14,58.373c-17.372,36.098-35.517,72.718-44.888,111.886 c-5.89-0.609-11.913-1.073-17.73-0.52C13.17,420.055,13.763,416.697,14.924,413.31z M496.347,437.168 c-2.724,10.755-4.565,22.29-10.001,32.105c-7.806,14.095-25.192,10.493-39.225,11.093c-19.056,0.814-38.121,1.436-57.188,1.932 c-38.907,1.012-77.825,1.495-116.741,1.994c-38.494,0.494-77.088,2.065-115.576,0.996c-37.144-1.031-75.513,1.248-112.331-4.232 c-5.492-0.818-12.334-1.344-16.935-4.794c-4.71-3.531-5.924-9.989-7.474-15.339c-3.001-10.361-7.052-20.706-7.858-31.233 c6.446,1.221,13.194,1.462,19.621,2.172c11.969,1.322,23.879,3.088,35.802,4.758c20.288,2.841,40.567,5.288,61.043,6.227 c11.316,0.519,22.643,0.766,33.961,1.224c4.949,0.2,9.892,0.463,14.837,0.741c4.019,0.226,10.417-0.513,13.883,1.995 c4.127,2.987,6.535,9.687,10.463,13.324c4.613,4.272,10.017,7.53,15.764,10.026c22.731,9.871,51.601,9.263,74.863,1.4 c5.796-1.959,11.516-4.472,16.178-8.528c5.352-4.655,6.775-14.254,12.169-17.81c9.714-6.403,27.887-1.496,38.815-1.556 c24.209-0.133,48.635-1.919,72.768-3.745c11.091-0.839,22.274-1.552,33.264-3.315c10.308-1.654,20.373-4.051,30.835-3.804 C497.016,434.236,496.724,435.682,496.347,437.168z M480.27,423.313c-0.863-10.912-8.362-21.594-12.032-31.499 c-7.749-20.917-15.396-41.857-23.478-62.651c-7.869-20.245-16.912-40.016-24.706-60.28c-4.637-12.056-8.466-26.832-17.155-36.939 c4.646-3.831,7.493-9.838,9.534-16.221c5.594,11.113,9.842,23.458,15.279,34.353c8.588,17.206,16.229,34.923,24.155,52.443 c14.129,31.231,30.219,62.48,41.803,94.76c3.166,8.821,4.829,16.823,4.7,25.147C492.36,422.147,486.319,422.573,480.27,423.313z"></path><path d="M148.465,382.323c25.336,18.386,55.128,23.511,85.572,26.655c46.515,4.803,119.466,5.879,141.877-46.091 c10.331-23.957,11.712-55.105-0.996-78.372c-7.032-12.873-19.654-24.152-32.464-31.182c-8.845-4.854-18.365-8.435-28.108-11.013 c-28.7-7.594-60.539-8.766-89.905-4.983c-26.06,3.357-57.082,12.008-75.99,31.994c-15.843,12.724-28.171,31.305-31.201,50.867 C113.309,345.629,128.661,367.951,148.465,382.323z M258.629,347.556c3.732-0.469,7.339-1.84,11.029-2.273 c3.611-0.423,8.538-0.369,6.139,4.339c-1.41,2.767-4.925,4.516-7.601,5.6c-2.829,1.147-6.033,1.844-9.364,2.129 C258.768,354.086,258.718,350.821,258.629,347.556z M338.871,391.636c-22.111,11.075-48.019,13.548-72.384,13.165 c-2.405-0.038-4.84-0.091-7.287-0.153c1.539-10.091-0.045-20.65-0.108-30.805c-0.026-4.197-0.129-8.394-0.199-12.591 c7.745-0.884,26.121-6.388,22.139-17.319c-1.513-4.154-6.332-4.049-9.937-3.514c-4.514,0.671-8.628,1.392-12.643,1.848 c-0.16-5.17-0.304-10.341-0.519-15.508c-0.084-2.014-0.131-4.028-0.207-6.042c0.299-0.124,0.597-0.249,0.896-0.372 c1.177,0.619,2.36,1.23,3.536,1.851c18.116,9.573,36.144,19.32,53.932,29.492c8.376,4.79,16.522,10.198,25.083,14.639 c6.22,3.227,12.839,5.339,18.407,9.531C354.125,382.119,347.303,387.412,338.871,391.636z M375.749,339.72 c-2.074,11.728-5.917,22.028-11.952,30.747c-4.098-3.452-9.388-5.436-14.232-7.646c-8.617-3.931-16.57-9.127-24.772-13.846 c-18.354-10.557-36.982-20.628-55.71-30.503c-0.872-0.46-1.749-0.91-2.621-1.368c31.574-12.97,63.554-25.603,94.242-40.32 C375.49,293.918,379.884,316.335,375.749,339.72z M284.763,244.163c22.625,2.496,46.19,8.246,64.692,22.134 c2.354,1.767,4.504,3.649,6.544,5.591c-32.636,13.134-64.938,27.354-97.347,41.14c-0.402-0.209-0.807-0.413-1.209-0.622 c-0.747-23.354-0.999-46.725-0.962-70.082C265.953,242.474,275.417,243.133,284.763,244.163z M251.877,363.582 c0.184,12.874,2.585,27.91,0.239,40.606c-0.015,0.082-0.01,0.157-0.02,0.238c-24.015-0.902-49.307-3.515-71.306-11.754 c-14.012-5.248-28.715-13.338-39.868-24.4c16.257-8.813,33.65-14.192,50.901-20.736c19.192-7.28,38.141-15.188,57.06-23.141 c0.632-0.266,1.269-0.526,1.902-0.791c0.222,6.371,0.435,12.743,0.621,19.115c-1.101,0.009-2.208-0.016-3.327-0.082 c-8.137-3.643-22.152-8.474-22.008,3.009c0.136,10.862,15.168,14.921,25.756,15.656 C251.838,362.061,251.866,362.822,251.877,363.582z M234.726,351.314c-1.161-0.526-2.064-1.329-2.711-2.407 c-2.467-2.461,0.397-5.549,3.194-5.85c1.254-0.135,2.672,0.272,4.024,0.853c1.207,0.518,2.361,1.175,3.299,1.709 c0.507,0.288,0.974,0.543,1.324,0.671c1.861,0.681,3.354,1.007,4.918,1.089c0.905,0.153,1.823,0.267,2.751,0.341 c0.085,3.202,0.15,6.404,0.213,9.607C245.443,356.752,239.268,354.742,234.726,351.314z M201.279,251.298 c8.494-2.816,16.976-5.509,25.587-7.583c8.225-0.962,16.528-1.378,24.838-1.403c-2.453,9.376-1.533,20.695-1.582,29.739 c-0.066,12.242-0.048,24.475,0.226,36.709c-5.937-3.058-11.891-6.081-17.838-9.117c1.589-3.476,2.697-6.862,3.205-9.685 c1.748-9.714,0.736-32.748-14.572-30.835c-5.974,0.747-8.409,5.566-8.465,11.097c-0.033,3.316,1.176,6.499,1.671,9.734 c0.528,3.448,0.576,7.018,0.016,10.415c-0.615-0.313-1.228-0.628-1.843-0.942c-16.023-8.17-32.642-17.442-49.684-23.586 C174.754,259.08,188.366,255.579,201.279,251.298z M216.868,298.801c2.727,1.394,5.454,2.788,8.181,4.184 c-2.898,4.241-7.095,10.617-11.671,13.204c-3.917,2.214-10.825-1.206-9.105-6.232c0.332-0.971,1.01-1.596,1.834-2.059 c1.359-0.762,3.117-1.081,4.38-1.771C211.258,305.706,217.92,299.339,216.868,298.801z M218.899,292.686 c1.314-5.854,1.264-12.227,0.466-16.713c-0.268-1.16-0.47-2.332-0.608-3.52c-0.942-3.404,1.06-6.849,4.834-6.889 c7.501-0.079,8.339,10.68,8.388,15.726c0.057,5.808-1.205,11.178-3.675,16.204C225.167,295.893,222.035,294.284,218.899,292.686z  M159.106,268.064c13.214,11.105,31.346,17.22,46.548,25.003c2.281,1.168,4.563,2.334,6.844,3.5c-1.004,2.157-2.38,4.118-4.166,5.79 c-4.244,1.736-10.627,3.746-10.775,9.088c-0.147,5.28,6.262,8.964,10.855,9.215c8.428,0.461,16.028-6.97,21.113-15.381 c7.018,3.597,14.031,7.202,21.026,10.843c0.004,0.112,0.006,0.224,0.009,0.336c-3.676,1.554-7.353,3.107-11.034,4.644 c-19.535,8.155-39.097,16.231-58.869,23.794c-14.654,5.605-29.75,11.132-42.325,20.688c-6.32-6.909-11.263-14.877-13.85-23.983 C116.502,313.507,136.131,282.99,159.106,268.064z"></path><path d="M180.519,322.891c9.579-5.685,15.689-18.663,5.431-27.002c-8.626-7.012-20.403-4.067-26.471,4.171 c-4.759,3.988-8.331,9.245-7.243,15.062C154.654,328.051,171.599,328.185,180.519,322.891z M181.703,299.086 c9.148,6.152,2.308,16.323-5.113,20.232c-4.586,2.414-12.451,3.065-16.941,0.048C147.542,311.234,170.186,291.342,181.703,299.086z"></path><path d="M298.979,282.689c9.579-5.685,15.689-18.662,5.431-27.002c-8.625-7.012-20.403-4.067-26.471,4.171 c-4.759,3.988-8.331,9.245-7.243,15.062C273.115,287.85,290.059,287.983,298.979,282.689z M300.163,258.884 c9.148,6.152,2.308,16.323-5.113,20.232c-4.585,2.414-12.451,3.065-16.941,0.048C266.003,271.033,288.646,251.14,300.163,258.884z"></path><path d="M306.554,358.603c-8.626-7.012-20.403-4.067-26.471,4.172c-4.759,3.988-8.331,9.245-7.243,15.062 c2.418,12.929,19.363,13.062,28.283,7.768C310.702,379.92,316.813,366.942,306.554,358.603z M297.194,382.032 c-4.586,2.414-12.451,3.065-16.941,0.048c-12.106-8.131,10.538-28.024,22.055-20.28 C311.456,367.951,304.615,378.123,297.194,382.032z"></path><path d="M228.767,358.459c-2.38-8.985-18.311-10.362-25.673-8.138c-6.511,1.966-13.583,5.681-17.828,11.152 c-3.668,4.729-5.937,12.491-0.499,16.78c4.357,3.437,10.966,2.944,16.446,2.23c3.602,6.933,10.148,10.965,18.397,7.764 c3.322-1.289,5.923-3.817,6.597-7.404c0.731-3.896-1.26-6.313-3.805-8.533C226.317,368.546,230.32,364.322,228.767,358.459z  M220.143,366.419c-1.639,1.503-3.582,2.889-4.306,4.991c-0.987,2.868,9.76,12.486-0.977,12.057 c-7.406-0.298-5.704-6.771-10.66-8.564c-0.925-0.335-1.941-0.248-2.921-0.157c-4.412,0.411-13.955,2.941-15.01-3.738 c-0.613-3.884,4.387-8.65,7.178-10.643c5.714-4.165,12.893-6.854,19.706-6.25C219.975,354.719,226.936,360.186,220.143,366.419z"></path><path d="M327.366,330.431c1.875,7.585,7.291,13.04,16.061,11.864c3.532-0.474,6.654-2.321,8.15-5.649 c1.625-3.615,0.257-6.433-1.696-9.188c4.688-2.739,9.571-5.906,9.437-11.97c-0.205-9.292-15.368-14.369-23.047-13.936 c-6.79,0.383-14.537,2.335-19.947,6.657c-4.675,3.736-8.702,10.749-4.422,16.194C315.331,328.767,321.871,329.839,327.366,330.431z  M324.538,309.053c6.532-2.708,14.141-3.637,20.623-1.451c6.489,2.189,11.973,9.137,3.907,13.601 c-1.946,1.077-4.16,1.967-5.358,3.841c-1.633,2.557,6.558,14.427-3.779,11.491c-7.129-2.027-3.955-7.921-8.352-10.827 c-0.821-0.542-1.829-0.696-2.803-0.838c-4.385-0.636-14.256-0.416-13.714-7.156C315.378,313.796,321.357,310.336,324.538,309.053z"></path><path d="M299.214,321.038c0.098-0.074,0.196-0.148,0.294-0.223c1.339-1.014,2.446-2.311,2.365-4.122 c-0.057-1.266-0.485-2.462-1.398-3.376c-0.866-0.866-2.152-1.398-3.376-1.398c-1.839,0-3.071,0.976-4.122,2.364 c-0.074,0.098-0.149,0.196-0.223,0.294c-1.201,1.587-0.667,4.432,0.739,5.722C294.911,321.604,297.518,322.321,299.214,321.038z"></path><path d="M273.513,297.28c2.182,0,4.272-1.918,4.171-4.171c-0.101-2.26-1.833-4.171-4.171-4.171c-2.182,0-4.272,1.918-4.171,4.171 C269.443,295.368,271.174,297.28,273.513,297.28z"></path><path d="M322.878,278.237c2.008,0,3.931-1.765,3.838-3.838c-0.093-2.079-1.686-3.838-3.838-3.838c-2.008,0-3.931,1.765-3.838,3.838 C319.133,276.479,320.727,278.237,322.878,278.237z"></path><path d="M241.37,257.676c2.514-0.572,3.98-3.429,3.352-5.83c-0.612-2.339-2.906-3.791-5.258-3.475 c-2.819,0.379-4.74,3.186-3.974,5.966C236.195,256.901,238.844,258.252,241.37,257.676z"></path><path d="M190.829,260.072c-2.32,0-4.544,2.04-4.436,4.436c0.108,2.404,1.949,4.436,4.436,4.436c2.321,0,4.544-2.04,4.436-4.436 C195.158,262.105,193.316,260.072,190.829,260.072z"></path><path d="M139.512,347.487c4.719-0.731,5.994-8.065,1.499-10.114c-0.685-0.312-1.43-0.514-2.18-0.594 c-0.797-0.22-1.64-0.244-2.43,0.012c-2.084,0.675-3.373,2.416-3.498,4.594c-0.082,1.428,0.335,2.492,0.896,3.778 C134.757,347.357,137.469,347.804,139.512,347.487z"></path><path d="M136.4,324.676c1.632,0.219,2.945-0.752,3.435-2.177c0.346-0.791,0.414-1.699,0.055-2.515 c-0.574-1.307-2.276-2.465-3.765-1.848c-1.188,0.493-2.137,1.18-2.398,2.527C133.359,322.555,134.379,324.405,136.4,324.676z"></path><path d="M152.908,339.751c3.46,0,3.466-5.377,0-5.377C149.449,334.374,149.443,339.751,152.908,339.751z"></path><path d="M166.979,366.713c-0.051-0.005-0.102-0.011-0.153-0.017c-2.437-0.261-4.775,2.335-4.671,4.671 c0.103,2.308,2.069,4.949,4.671,4.671c0.051-0.006,0.103-0.011,0.153-0.017c2.413-0.258,4.775-1.956,4.655-4.654 C171.51,368.624,169.581,366.991,166.979,366.713z"></path><path d="M277.737,391.139c-0.69-0.448-1.441-0.626-2.257-0.635c-3.113-0.038-5.089,3.504-3.535,6.159 c1.262,2.157,3.906,2.481,5.774,1.269l-0.109,0.109c0.042-0.02,0.085-0.04,0.127-0.059 C280.595,396.648,280.02,392.621,277.737,391.139z"></path><path d="M330.599,374.751c-2.799,0-5.481,2.461-5.352,5.352c0.13,2.899,2.351,5.352,5.352,5.352c2.799,0,5.481-2.461,5.352-5.352 C335.82,377.203,333.599,374.751,330.599,374.751z"></path><path d="M356.767,348.024c-1.781-1.376-3.874-0.686-5.124,0.978c-0.062,0.082-0.123,0.164-0.185,0.247 c-1.035,1.378-0.338,3.521,0.893,4.473c1.338,1.034,3.339,0.975,4.553-0.271l0.216-0.222 C358.577,351.732,358.421,349.301,356.767,348.024z"></path><path d="M367.316,337.464c2.587,0,2.591-4.02,0-4.02C364.729,333.444,364.725,337.464,367.316,337.464z"></path><path d="M350.694,297.769c0.371,1.918,2.379,3.1,4.183,3.185c0.062,0.003,0.124,0.006,0.186,0.009 c2.871,0.135,5.3-3.037,4.399-5.775c-0.231-0.703-0.502-1.479-1.096-1.973c-0.29-0.241-0.663-0.585-1.001-0.753 c-1.677-0.834-3.541-0.822-5.067,0.357c-1.518,1.173-1.992,2.949-1.635,4.795C350.674,297.665,350.684,297.717,350.694,297.769z"></path><g></g><g></g><g></g><g></g><g></g><g></g><g></g><g></g><g></g><g></g><g></g><g></g><g></g><g></g><g></g></svg>