<svg xmlns:xlink="http://www.w3.org/1999/xlink" xmlns="http://www.w3.org/2000/svg" id="icons" height="512" viewBox="0 0 64 64" width="512"><path d="m55.59 48.11905a2.37253 2.37253 0 0 1 .53 3.43 30.9509 30.9509 0 0 1 -21.62 11.44 2.34253 2.34253 0 0 1 -2.5-2.36v-2.56l4.72.02a9.96787 9.96787 0 0 0 6.02-1.98l8.03-5.96a10.07366 10.07366 0 0 0 2.87-3.36l1.56 1.06z" fill="#FFCFA0"></path><path d="m59.24 17.14905a31.17142 31.17142 0 0 1 0 29.72 2.79607 2.79607 0 0 1 -4.04.98l-1.56-1.06v-.01a10.26014 10.26014 0 0 0 .7-1.63l3.19-10a10.00729 10.00729 0 0 0 .03-6.03l-3.09-10.03a9.74963 9.74963 0 0 0 -.8-1.88l1.52-1.04a2.8052 2.8052 0 0 1 4.05.98z" fill="#F9BE86"></path><path d="m32 60.21905a2.75751 2.75751 0 0 1 -3.02 2.73 30.92573 30.92573 0 0 1 -20.9-11.17 2.70941 2.70941 0 0 1 .62-3.96l.59-.41 1.02-.69a10.09006 10.09006 0 0 0 2.76 3.23l7.96 6.05a9.97552 9.97552 0 0 0 6.01 2.04l4.96.03z" fill="#F9BE86"></path><path d="m56.26 12.64905a2.15183 2.15183 0 0 1 -.47 3.11l-.6.41-1.52 1.04a10.05824 10.05824 0 0 0 -2.72-3.16l-7.96-6.05a10.01163 10.01163 0 0 0 -6-2.04l-4.99-.02v-2.79a2.13339 2.13339 0 0 1 2.28-2.14 30.882 30.882 0 0 1 21.98 11.64z" fill="#FFCFA0"></path><path d="m49.56 37.98905a7.22511 7.22511 0 0 1 0 5.02 4.31428 4.31428 0 0 1 -.32.77 7.29088 7.29088 0 0 1 -2.23 2.71 2.5 2.5 0 1 0 -4.5 1.51 7.522 7.522 0 0 1 -7.5-7.5 7.41827 7.41827 0 0 1 1.99-5.07005 2.29132 2.29132 0 0 1 .21-.23 7.48409 7.48409 0 0 1 10.6 0 7.25994 7.25994 0 0 1 1.75 2.79005z" fill="#FF5666"></path><path d="m25.68 36.29905a7.47029 7.47029 0 0 1 -1.88 7.5 7.461 7.461 0 0 1 -5.29 2.2 7.34058 7.34058 0 0 1 -4.68-1.66c0 .01-.01 0-.01 0a7.47847 7.47847 0 0 1 -.61-11.14c.07-.07.14-.13.21-.19a7.455 7.455 0 0 1 10.38.19 7.57708 7.57708 0 0 1 1.88 3.1z" fill="#FF5666"></path><path d="m13.26 13.85905a9.91 9.91 0 0 0 -2.87 3.34l-.06-.04-.96-.66-.51-.35a2.863 2.863 0 0 1 -.53-4.22 30.9348 30.9348 0 0 1 20.54-10.85 2.84877 2.84877 0 0 1 3.13 2.83v2.03l-4.7-.03a10.03345 10.03345 0 0 0 -6.02 1.98z" fill="#F9BE86"></path><path d="m32 9.02905a7.31588 7.31588 0 0 1 4 1.48 2.49836 2.49836 0 0 0 1.51 4.49 2.45073 2.45073 0 0 0 1.26-.34 7.036 7.036 0 0 1 .24 1.84 7.48589 7.48589 0 0 1 -7.01 7.47 3.90782 3.90782 0 0 1 -.49.03 7.522 7.522 0 0 1 -7.5-7.5 2.49063 2.49063 0 0 0 1-2 2.37652 2.37652 0 0 0 -.29-1.16 7.22683 7.22683 0 0 1 1.49-2.14 7.48447 7.48447 0 0 1 5.3-2.2 3.90782 3.90782 0 0 1 .49.03z" fill="#FF5666"></path><g fill="#A05454"><path d="m47.01 46.48905v.01a2.495 2.495 0 1 1 0-.01z" fill="#A05454"></path><path d="m53.51 28.99905a2.5 2.5 0 1 1 -2.5 2.5 2.73409 2.73409 0 0 1 .05-.5 2.50493 2.50493 0 0 1 1.95-1.95 2.73409 2.73409 0 0 1 .5-.05z" fill="#A05454"></path><circle cx="37.51" cy="52.499" r="2.5" fill="#A05454"></circle><circle cx="22.51" cy="50.499" r="2.5" fill="#A05454"></circle><path d="m17 21.72905a2.50148 2.50148 0 1 1 -3.63-2.48 2.4339 2.4339 0 0 1 1.14-.28 2.50091 2.50091 0 0 1 2.5 2.5 2.26021 2.26021 0 0 1 -.01.26z" fill="#A05454"></path><circle cx="44.51" cy="17.499" r="2.5" fill="#A05454"></circle><path d="m40.11 26.47905a2.49876 2.49876 0 1 1 -3.19 2.4 1.92687 1.92687 0 0 1 .01-.24 2.49939 2.49939 0 0 1 2.49-2.26 2.19533 2.19533 0 0 1 .68.1z" fill="#A05454"></path><path d="m37.51 9.99905a2.50047 2.50047 0 0 1 1.26 4.66 2.45073 2.45073 0 0 1 -1.26.34 2.5 2.5 0 0 1 0-5z" fill="#A05454"></path><path d="m24.72 13.33905a2.37652 2.37652 0 0 1 .29 1.16 2.49063 2.49063 0 0 1 -1 2 2.5 2.5 0 1 1 -1.5-4.5 2.47846 2.47846 0 0 1 2.21 1.34z" fill="#A05454"></path><path d="m22.51 22.99905a2.50091 2.50091 0 0 1 2.5 2.5 2.46431 2.46431 0 0 1 -.44 1.42 2.50159 2.50159 0 0 1 -4.56-1.42 2.50945 2.50945 0 0 1 2.5-2.5z" fill="#A05454"></path></g><path d="m20.01 50.499a2.5 2.5 0 1 0 2.5-2.5 2.50091 2.50091 0 0 0 -2.5 2.5zm1.02 5.5-7.96-6.05a10.09006 10.09006 0 0 1 -2.76-3.23l.03-.01 3.48-2.37s.01.01.01 0a7.34058 7.34058 0 0 0 4.68 1.66 7.52852 7.52852 0 0 0 7.5-7.5 7.55313 7.55313 0 0 0 -.33-2.2c.78-.53 2.36-1.6 3.14-2.13.8-.55 2.39-1.63 3.19-2.17-.01 3.67-.01 7.33-.01 11h-3.1a.892.892 0 0 0 -.89.89v4.22a.892.892 0 0 0 .89.89h3.1v9.07l-4.96-.03a9.97552 9.97552 0 0 1 -6.01-2.03995z" fill="#FFCF44"></path><path d="m14.51 18.96905a2.4339 2.4339 0 0 0 -1.14.28v-.01c-.99-.68-1.99-1.36-2.98-2.04a9.91 9.91 0 0 1 2.87-3.34l8.02-5.97a10.03345 10.03345 0 0 1 6.02-1.98l4.7.03v3.09a3.90782 3.90782 0 0 0 -.49-.03 7.48447 7.48447 0 0 0 -5.3 2.2 7.22683 7.22683 0 0 0 -1.49 2.14 2.49827 2.49827 0 1 0 -2.21 3.66 2.52564 2.52564 0 0 0 1.5-.5 7.522 7.522 0 0 0 7.5 7.5 3.90782 3.90782 0 0 0 .49-.03v3.03h-3.1a.892.892 0 0 0 -.89.89v1.39c-1.15-.79-2.29-1.57-3.44-2.36a2.46431 2.46431 0 0 0 .44-1.42 2.50091 2.50091 0 0 0 -2.5-2.5 2.46722 2.46722 0 0 0 -2.06 1.09c-1.15-.78-2.3-1.57-3.45-2.36a2.26021 2.26021 0 0 0 .01-.26 2.50091 2.50091 0 0 0 -2.5-2.5z" fill="#FFCF44"></path><path d="m56.01 31.49905a2.50091 2.50091 0 0 0 -2.5-2.5 2.73409 2.73409 0 0 0 -.5.05v-2.17a.89415.89415 0 0 0 -.89-.9h-4.22a.89415.89415 0 0 0 -.89.9v3.23a.892.892 0 0 0 .89.89h3.16a2.73409 2.73409 0 0 0 -.05.5 2.5 2.5 0 0 0 5 0zm-16.59-.12a2.49835 2.49835 0 0 0 .69-4.9q6.78-4.65 13.55-9.27h.01a9.74963 9.74963 0 0 1 .8 1.88l3.09 10.03a10.00729 10.00729 0 0 1 -.03 6.03l-3.19 10a10.26014 10.26014 0 0 1 -.7 1.63l-.02-.01c-1.46-1-2.92-1.99-4.38-2.99a4.31428 4.31428 0 0 0 .32-.77h2.56a.892.892 0 0 0 .89-.89v-3.24a.892.892 0 0 0 -.89-.89h-2.56a7.25994 7.25994 0 0 0 -1.75-2.79 7.48409 7.48409 0 0 0 -10.6 0 2.29132 2.29132 0 0 0 -.21.23c-1.67-1.14-3.33-2.29-4.99-3.43h1.11a.892.892 0 0 0 .89-.89v-.47c.97-.67 1.95-1.33 2.92-2a1.92687 1.92687 0 0 0 -.01.24 2.50091 2.50091 0 0 0 2.5 2.5z" fill="#FFCF44"></path><path d="m35.01 40.499a7.522 7.522 0 0 0 7.5 7.5 2.5 2.5 0 0 0 4.5-1.5v-.01a7.29088 7.29088 0 0 0 2.23-2.71c1.46 1 2.92 1.99 4.38 2.99l.02.01v.01a10.07366 10.07366 0 0 1 -2.87 3.36l-8.03 5.96a9.96787 9.96787 0 0 1 -6.02 1.98l-4.72-.02v-9.07h.14a.90059.90059 0 0 0 .9-.89v-4.22a.90059.90059 0 0 0 -.9-.89h-.14c0-3.67 0-7.33.01-11 1.66 1.14 3.32 2.29 4.99 3.43a7.41827 7.41827 0 0 0 -1.99 5.07zm5 12a2.5 2.5 0 1 0 -2.5 2.5 2.50091 2.50091 0 0 0 2.5-2.49995z" fill="#FFBC1C"></path><path d="m53.66 17.20905q-6.78 4.62-13.55 9.27h-.01a2.19533 2.19533 0 0 0 -.68-.1 2.49939 2.49939 0 0 0 -2.49 2.26c-.97.67-1.95 1.33-2.92 2v-2.75a.892.892 0 0 0 -.89-.89h-1.12v-3.03a7.48589 7.48589 0 0 0 7.01-7.47 7.036 7.036 0 0 0 -.24-1.84 2.50047 2.50047 0 0 0 -1.26-4.66 2.4762 2.4762 0 0 0 -1.51.51 7.31588 7.31588 0 0 0 -4-1.48v-3.09l4.99.02a10.01163 10.01163 0 0 1 6 2.04l7.96 6.05a10.05824 10.05824 0 0 1 2.72 3.16zm-9.15 2.79a2.5 2.5 0 1 0 -2.5-2.5 2.50091 2.50091 0 0 0 2.5 2.5z" fill="#FFBC1C"></path><path d="m13.37 19.24905a2.49879 2.49879 0 1 0 3.63 2.48c1.15.79 2.3 1.58 3.45 2.36a2.45608 2.45608 0 0 0 -.44 1.41 2.50159 2.50159 0 0 0 4.56 1.42c1.15.79 2.29 1.57 3.44 2.36v1.83a.892.892 0 0 0 .89.89h3.11c-.8.54-2.39 1.62-3.19 2.17-.78.53-2.36 1.6-3.14 2.13a7.57708 7.57708 0 0 0 -1.88-3.1 7.48232 7.48232 0 0 0 -6.79-2.05v-2.27a.892.892 0 0 0 -.89-.89h-4.22a.892.892 0 0 0 -.89.89v3.24a.892.892 0 0 0 .89.89h1.52c-.07.06-.14.12-.21.19a7.47847 7.47847 0 0 0 .61 11.14l-3.48 2.37-.03.01a9.77438 9.77438 0 0 1 -.75-1.8l-3.1-10.03a10.16339 10.16339 0 0 1 .03-6.03l3.2-10a9.71756 9.71756 0 0 1 .7-1.66c.99.68 1.99 1.36 2.98 2.04z" fill="#FFBC1C"></path><path d="m53.01 38.87905v3.24a.892.892 0 0 1 -.89.89h-2.56a7.22511 7.22511 0 0 0 0-5.02h2.56a.892.892 0 0 1 .89.89z" fill="#FF7255"></path><path d="m33.04 43.88905v4.22a.90059.90059 0 0 1 -.9.89h-3.24a.892.892 0 0 1 -.89-.89v-4.22a.892.892 0 0 1 .89-.89h3.24a.90059.90059 0 0 1 .9.89z" fill="#FF7255"></path><path d="m28.9 26.99905h4.22a.892.892 0 0 1 .89.89v3.22a.892.892 0 0 1 -.89.89h-4.22a.892.892 0 0 1 -.89-.89v-3.22a.892.892 0 0 1 .89-.89z" fill="#FF7255"></path><path d="m17.01 28.87905v2.27a7.38745 7.38745 0 0 0 -3.59 1.86h-1.52a.892.892 0 0 1 -.89-.89v-3.24a.892.892 0 0 1 .89-.89h4.22a.892.892 0 0 1 .89.89z" fill="#FF7255"></path><path d="m53.01 26.87905v2.17a2.50493 2.50493 0 0 0 -1.95 1.95h-3.16a.892.892 0 0 1 -.89-.89v-3.23a.89415.89415 0 0 1 .89-.9h4.22a.89415.89415 0 0 1 .89.9z" fill="#FF7255"></path><path d="m10.33 17.15905.06.04a9.71756 9.71756 0 0 0 -.7 1.66l-3.2 10a10.16339 10.16339 0 0 0 -.03 6.03l3.1 10.03a9.77438 9.77438 0 0 0 .75 1.8l-1.02.69a3.36028 3.36028 0 0 1 -4.88-1.21 31.17562 31.17562 0 0 1 .06-28.51 3.373 3.373 0 0 1 4.9-1.19z" fill="#FFCFA0"></path><path d="m31.99707 59.07031a.99942.99942 0 0 1 -1-1v-9.07031a1 1 0 0 1 2 0v9.07031a.99942.99942 0 0 1 -1 1z"></path><path d="m32.00244 31h.001a.999.999 0 0 1 .999.999v11.001a1 1 0 0 1 -1 1h-.001a.999.999 0 0 1 -.999-.999v-11.001a1 1 0 0 1 1-1z"></path><path d="m20.44629 25.08984a.99451.99451 0 0 1 -.56055-.17236c-1.15039-.78076-2.30273-1.57227-3.45508-2.36328a1.00008 1.00008 0 0 1 1.13282-1.64844q1.72265 1.18359 3.44531 2.35645a1.00021 1.00021 0 0 1 -.5625 1.82763z"></path><path d="m28.00684 30.28027a.99266.99266 0 0 1 -.56543-.17578l-3.44041-2.36035a1.00008 1.00008 0 0 1 1.13281-1.64844l3.44043 2.36035a1.00014 1.00014 0 0 1 -.56738 1.82422z"></path><path d="m13.36621 20.24023a.99268.99268 0 0 1 -.56543-.17578l-2.97949-2.04a1.03187 1.03187 0 0 1 -.293-1.40332.96894.96894 0 0 1 1.35059-.29492l3.05471 2.08979a1 1 0 0 1 -.56738 1.82421z"></path><path d="m36.99609 36.42969a.9927.9927 0 0 1 -.56543-.17578l-4.98925-3.42969a1.00008 1.00008 0 1 1 1.13281-1.64844l4.98926 3.42969a1 1 0 0 1 -.56739 1.82422z"></path><path d="m53.61621 47.77051a.99816.99816 0 0 1 -.56445-.17481l-4.37988-2.99023a1.00033 1.00033 0 1 1 1.13085-1.65039l4.37989 2.99023a1.00007 1.00007 0 0 1 -.56641 1.8252z"></path><path d="m10.33887 47.71a1 1 0 0 1 -.56446-1.82617l3.49024-2.37012a.99949.99949 0 0 1 1.125 1.65235l-3.48828 2.37011a.9985.9985 0 0 1 -.5625.17383z"></path><path d="m25.67871 37.2998a1.00011 1.00011 0 0 1 -.5625-1.82812l6.3291-4.29834a.99989.99989 0 1 1 1.125 1.65332l-6.331 4.30127a.99774.99774 0 0 1 -.5606.17187z"></path><path d="m34.00879 31.64014a.99982.99982 0 0 1 -.56934-1.82276q.74415-.51416 1.49512-1.02392l1.42481-.97657a1.00038 1.00038 0 0 1 1.13671 1.64649l-1.43457.98242q-.74413.50684-1.48535 1.01709a.99667.99667 0 0 1 -.56738.17725z"></path><path d="m40.09863 27.48a1.00017 1.00017 0 0 1 -.5664-1.82471q6.78077-4.65089 13.56152-9.2715a1 1 0 0 1 1.127 1.65234q-6.77782 4.61939-13.55761 9.26856a.99283.99283 0 0 1 -.56451.17531z"></path><path d="m10.3877 18.2002a.99883.99883 0 0 1 -.56641-.17579l-1.52729-1.0498a3.83049 3.83049 0 0 1 -1.624-2.64356 3.9158 3.9158 0 0 1 .89356-3.04589 31.80256 31.80256 0 0 1 21.20206-11.20069 3.84908 3.84908 0 0 1 4.23438 3.82862v2.02343a1.00162 1.00162 0 0 1 -.29492.709 1.15307 1.15307 0 0 1 -.71.291l-4.6982-.02392a9.08817 9.08817 0 0 0 -5.41988 1.77978l-8.02246 5.96875a9.09488 9.09488 0 0 0 -2.584 3.0083 1 1 0 0 1 -.64551.502.98013.98013 0 0 1 -.23733.02877zm18.76953-16.13526c-.06348 0-.127.00342-.19141.00977a29.81436 29.81436 0 0 0 -19.875 10.501 1.91778 1.91778 0 0 0 -.43945 1.48877 1.8085 1.8085 0 0 0 .77539 1.26172l.65136.44776a11.10194 11.10194 0 0 1 2.583-2.71729l8.02246-5.96875a11.07263 11.07263 0 0 1 6.56742-2.17532h.05566l3.69334.01904v-1.01855a1.85 1.85 0 0 0 -1.84277-1.84815z"></path><path d="m7.37793 48.99805a4.40456 4.40456 0 0 1 -1.0957-.1377 4.30969 4.30969 0 0 1 -2.76465-2.20215 31.79709 31.79709 0 0 1 -3.52539-14.65039 32.22542 32.22542 0 0 1 3.59281-14.78271 4.311 4.311 0 0 1 2.78418-2.19141 4.41436 4.41436 0 0 1 3.56836.644l1.0166.69825a1 1 0 0 1 .31641 1.29394 8.91564 8.91564 0 0 0 -.62891 1.49268l-3.19629 9.998a9.02265 9.02265 0 0 0 -.02735 5.43026l3.09277 10.03027a9.00832 9.00832 0 0 0 .68164 1.62793.99893.99893 0 0 1 -.32129 1.30176l-1.02148.69043a4.4088 4.4088 0 0 1 -2.47171.75684zm.06055-32.09619a2.397 2.397 0 0 0 -.584.07226 2.27821 2.27821 0 0 0 -1.49413 1.17188 30.22427 30.22427 0 0 0 -3.36816 13.86181 29.82314 29.82314 0 0 0 3.30469 13.73828 2.28142 2.28142 0 0 0 1.48339 1.17676 2.41185 2.41185 0 0 0 1.94922-.33785l.30371-.20508a11.20152 11.20152 0 0 1 -.43359-1.16894l-3.09277-10.03032a11.00587 11.00587 0 0 1 .03416-6.62841l3.19531-9.99756q.16405-.51562.37988-1.01514l-.31152-.21338a2.4112 2.4112 0 0 0 -1.36619-.42431z"></path><path d="m29.24414 63.96c-.12109 0-.24121-.00586-.3623-.01758a31.7555 31.7555 0 0 1 -21.57715-11.5225 3.658 3.658 0 0 1 -.78809-2.84863 3.77407 3.77407 0 0 1 1.61817-2.584l1.61623-1.09276a1.00056 1.00056 0 0 1 1.44043.35352 8.99627 8.99627 0 0 0 2.4873 2.90918l7.96191 6.0498a9.0582 9.0582 0 0 0 5.40036 1.83597l4.96386.02539a.99965.99965 0 0 1 .99512 1v2.14841a3.74758 3.74758 0 0 1 -3.75584 3.7432zm-19.24314-15.82035-.74512.5039a1.77216 1.77216 0 0 0 -.75977 1.21485 1.63461 1.63461 0 0 0 .35157 1.29 29.775 29.775 0 0 0 20.22752 10.80375 1.74314 1.74314 0 0 0 1.35546-.44824 1.72026 1.72026 0 0 0 .56934-1.28711v-1.15332l-3.96973-.02048a11.06954 11.06954 0 0 1 -6.60058-2.24414l-7.96094-6.04986a10.94681 10.94681 0 0 1 -2.46775-2.60935z"></path><path d="m34.32715 64a3.30819 3.30819 0 0 1 -2.23828-.87891 3.39416 3.39416 0 0 1 -1.08887-2.48828v-2.56445a1.00025 1.00025 0 0 1 1-1h.00488l4.72266.02441a9.1 9.1 0 0 0 5.41894-1.78125l8.02252-5.96777a9.09568 9.09568 0 0 0 2.59082-3.01953 1 1 0 0 1 1.44726-.3584l1.94824 1.3291a3.38851 3.38851 0 0 1 1.43946 2.30176 3.33838 3.33838 0 0 1 -.69825 2.57715 32.10911 32.10911 0 0 1 -22.31153 11.8164c-.086.00684-.17191.00977-.25785.00977zm-1.32715-4.92676v1.55957a1.39247 1.39247 0 0 0 .44531 1.01953 1.274 1.274 0 0 0 .97949.34375 30.09909 30.09909 0 0 0 20.91504-11.07809 1.31239 1.31239 0 0 0 .27637-1.0293 1.38641 1.38641 0 0 0 -.58789-.9414l-1.07227-.73145a11.11622 11.11622 0 0 1 -2.59375 2.7334l-8.02246 5.96775a11.069 11.069 0 0 1 -6.56933 2.17578h-.05274z"></path><path d="m56.77539 49.33789a3.80424 3.80424 0 0 1 -2.1416-.66016l-1.55371-1.05957a.99955.99955 0 0 1 -.32031-1.29394 9.13979 9.13979 0 0 0 .624-1.4834l3.19531-9.99707a9.0226 9.0226 0 0 0 .02735-5.43018l-3.09373-10.03027a9.08385 9.08385 0 0 0 -.71582-1.69141 1.00019 1.00019 0 0 1 .31152-1.30566l1.51855-1.0415a3.80646 3.80646 0 0 1 5.49512 1.32861 32.20169 32.20169 0 0 1 -.001 30.67139 3.8066 3.8066 0 0 1 -3.3457 1.99316zm-1.86039-2.88867.8457.57617a1.7846 1.7846 0 0 0 1.43457.2627 1.80264 1.80264 0 0 0 1.169-.89844 30.201 30.201 0 0 0 0-28.76123 1.79368 1.79368 0 0 0 -1.16992-.89893 1.77129 1.77129 0 0 0 -1.43653.26514l-.80273.55029a11.10114 11.10114 0 0 1 .46875 1.249l3.09375 10.03027a11.0076 11.0076 0 0 1 -.03418 6.6289l-3.19532 9.99711q-.16114.5068-.37309.99902z"></path><path d="m31.99707 28a.99974.99974 0 0 1 -1-1v-3.02979a1 1 0 0 1 2 0v3.02979a.99974.99974 0 0 1 -1 1z"></path><path d="m31.99707 10.03027a.99974.99974 0 0 1 -1-1v-3.09033a1 1 0 0 1 2 0v3.09033a.99974.99974 0 0 1 -1 1z"></path><path d="m53.67383 18.21094a.97968.97968 0 0 1 -.23145-.02735.99919.99919 0 0 1 -.64453-.49121 8.98922 8.98922 0 0 0 -2.45215-2.84375l-7.96191-6.05029a9.05653 9.05653 0 0 0 -5.39941-1.83594l-4.98926-.02588a1 1 0 0 1 -.99512-1v-2.78418a3.17478 3.17478 0 0 1 1.00977-2.31689 3.13379 3.13379 0 0 1 2.33886-.82764 32.06271 32.06271 0 0 1 22.69825 12.02149 3.15566 3.15566 0 0 1 -.69336 4.55761l-2.11426 1.44873a.999.999 0 0 1 -.56543.1753zm-20.67383-13.26905 3.99414.02051a11.07293 11.07293 0 0 1 6.60059 2.24317l7.96093 6.05029a10.95 10.95 0 0 1 2.418 2.53711l1.249-.856a1.14827 1.14827 0 0 0 .49023-.78418 1.13 1.13 0 0 0 -.23242-.87939 30.05381 30.05381 0 0 0 -21.27637-11.27047 1.10923 1.10923 0 0 0 -.832.29687 1.16789 1.16789 0 0 0 -.3721.85254z"></path><path d="m42.50781 49a8.56951 8.56951 0 1 1 5.10059-1.71 1.0002 1.0002 0 1 1 -1.20117-1.59961 6.49 6.49 0 1 0 -3.89942 1.30961 1 1 0 1 1 0 2z"></path><path d="m40.02734 44.001a1 1 0 0 1 -.00976-2h.00976a1 1 0 1 1 0 2z"></path><path d="m45.02734 42.001a1 1 0 0 1 -.00976-2h.00976a1 1 0 1 1 0 2z"></path><path d="m41.02734 39.001a1 1 0 0 1 -.00976-2h.00976a1 1 0 1 1 0 2z"></path><path d="m18.50781 47.002a8.50025 8.50025 0 1 1 8.5-8.5 8.51013 8.51013 0 0 1 -8.5 8.5zm0-15.00049a6.50025 6.50025 0 1 0 6.5 6.50049 6.508 6.508 0 0 0 -6.5-6.50054z"></path><path d="m16.02734 42.002a1 1 0 0 1 -.00976-2h.00976a1 1 0 1 1 0 2z"></path><path d="m21.02734 40.002a1 1 0 0 1 -.00976-2h.00976a1 1 0 1 1 0 2z"></path><path d="m17.02734 37.002a1 1 0 0 1 -.00976-2h.00976a1 1 0 1 1 0 2z"></path><path d="m24.7168 14.34033a1.00074 1.00074 0 0 1 -.91114-1.41015 8.213 8.213 0 0 1 1.69334-2.43653 8.44391 8.44391 0 0 1 6.00881-2.49365 4.92648 4.92648 0 0 1 .61426.03809 8.226 8.226 0 0 1 4.48047 1.67675.99964.99964 0 1 1 -1.21094 1.59082 6.31225 6.31225 0 0 0 -3.45508-1.27734 3.52775 3.52775 0 0 0 -.42871-.02832 6.45689 6.45689 0 0 0 -4.59375 1.90723 6.21431 6.21431 0 0 0 -1.28418 1.84228 1.00071 1.00071 0 0 1 -.91308.59082z"></path><path d="m31.50781 25a8.50982 8.50982 0 0 1 -8.5-8.5 1 1 0 0 1 2 0 6.50753 6.50753 0 0 0 6.5 6.5 2.84177 2.84177 0 0 0 .36426-.022 6.48982 6.48982 0 0 0 6.13574-6.478 6.03951 6.03951 0 0 0 -.20508-1.57764.99984.99984 0 0 1 1.92969-.52441 8.02554 8.02554 0 0 1 .27539 2.10205 8.48584 8.48584 0 0 1 -7.95215 8.46826 4.21273 4.21273 0 0 1 -.54785.03174z"></path><path d="m29.02734 20a1 1 0 0 1 -.00976-2h.00976a1 1 0 0 1 0 2z"></path><path d="m34.02734 18a1 1 0 0 1 -.00976-2h.00976a1 1 0 0 1 0 2z"></path><path d="m30.02734 15a1 1 0 0 1 -.00976-2h.00976a1 1 0 0 1 0 2z"></path><path d="m44.50781 21a3.5 3.5 0 1 1 3.5-3.5 3.50424 3.50424 0 0 1 -3.5 3.5zm0-5a1.5 1.5 0 1 0 1.5 1.5 1.50164 1.50164 0 0 0 -1.5-1.5z"></path><path d="m22.50781 18a3.5 3.5 0 1 1 3.5-3.5 3.50424 3.50424 0 0 1 -3.5 3.5zm0-5a1.5 1.5 0 1 0 1.5 1.5 1.50164 1.50164 0 0 0 -1.5-1.5z"></path><path d="m39.418 32.37646a3.5 3.5 0 1 1 3.5-3.5 3.50424 3.50424 0 0 1 -3.5 3.5zm0-5a1.5 1.5 0 1 0 1.5 1.5 1.50164 1.50164 0 0 0 -1.5-1.5z"></path><path d="m14.50781 24.97217a3.5 3.5 0 1 1 3.5-3.5 3.50424 3.50424 0 0 1 -3.5 3.5zm0-5a1.5 1.5 0 1 0 1.5 1.5 1.50164 1.50164 0 0 0 -1.5-1.5z"></path><path d="m22.50781 53.999a3.5 3.5 0 1 1 3.5-3.5 3.50424 3.50424 0 0 1 -3.5 3.5zm0-5a1.5 1.5 0 1 0 1.5 1.5 1.50164 1.50164 0 0 0 -1.5-1.5z"></path><path d="m53.50781 35a3.5 3.5 0 1 1 3.5-3.5 3.50424 3.50424 0 0 1 -3.5 3.5zm0-5a1.5 1.5 0 1 0 1.5 1.5 1.50164 1.50164 0 0 0 -1.5-1.5z"></path><path d="m37.50781 56a3.5 3.5 0 1 1 3.5-3.5 3.50424 3.50424 0 0 1 -3.5 3.5zm0-5a1.5 1.5 0 1 0 1.5 1.5 1.50164 1.50164 0 0 0 -1.5-1.5z"></path><path d="m13.417 34.00977h-1.51954a1.89175 1.89175 0 0 1 -1.88965-1.88965v-3.24024a1.89175 1.89175 0 0 1 1.88965-1.88965h4.21973a1.892 1.892 0 0 1 1.89062 1.88965v2.27a1 1 0 0 1 -2 0v-2.15965h-4v3.01954h1.40919a1 1 0 0 1 0 2z"></path><path d="m33.11523 33h-4.21484a1.89414 1.89414 0 0 1 -1.89258-1.89209v-3.21533a1.89456 1.89456 0 0 1 1.89258-1.89258h4.21484a1.89455 1.89455 0 0 1 1.89258 1.89258v3.21533a1.89413 1.89413 0 0 1 -1.89258 1.89209zm-4.10742-2h4v-3h-4z"></path><path d="m32.14062 50h-3.23828a1.89633 1.89633 0 0 1 -1.89453-1.89453v-4.21094a1.89633 1.89633 0 0 1 1.89453-1.89453h3.23828a1.89633 1.89633 0 0 1 1.89454 1.89453v4.21094a1.89633 1.89633 0 0 1 -1.89454 1.89453zm-3.13281-2h3.02735v-4h-3.02735z"></path><path d="m51.05762 32h-3.16016a1.89216 1.89216 0 0 1 -1.88965-1.89014v-3.23a1.89677 1.89677 0 0 1 1.88965-1.89986h4.21973a1.897 1.897 0 0 1 1.89062 1.8999v2.17041a1 1 0 0 1 -2 0v-2.07031h-4v3.02h3.04981a1 1 0 0 1 0 2z"></path><path d="m52.11719 44.00977h-2.55957a1 1 0 0 1 0-2h2.45019v-3.01954h-2.45019a1 1 0 0 1 0-2h2.55957a1.892 1.892 0 0 1 1.89062 1.88965v3.24024a1.892 1.892 0 0 1 -1.89062 1.88965z"></path><path d="m22.50781 29.00342a3.5 3.5 0 1 1 3.5-3.5 3.50424 3.50424 0 0 1 -3.5 3.5zm0-5a1.5 1.5 0 1 0 1.5 1.5 1.50164 1.50164 0 0 0 -1.5-1.5z"></path><path d="m37.50781 16a3.5 3.5 0 1 1 3.5-3.5 3.50424 3.50424 0 0 1 -3.5 3.5zm0-5a1.5 1.5 0 1 0 1.5 1.5 1.50164 1.50164 0 0 0 -1.5-1.5z"></path><path d="m44.50781 50a3.5 3.5 0 1 1 3.5-3.5 3.50424 3.50424 0 0 1 -3.5 3.5zm0-5a1.5 1.5 0 1 0 1.5 1.5 1.50164 1.50164 0 0 0 -1.5-1.5z"></path></svg>